# AST/ASF file generated using VICON BodyLanguage
# -----------------------------------------------
:version 1.10
:name VICON
:units
  mass 1.0
  length 0.45
  angle deg
:documentation
   .ast/.asf automatically generated from VICON data using
   VICON BodyBuilder and BodyLanguage model FoxedUp or BRILLIANT.MOD
:root
   order TX TY TZ RX RY RZ
   axis XYZ
   position 0 0 0  
   orientation 0 0 0 
:bonedata
  begin
     id 1 
     name lhipjoint
     direction 0.522423 -0.726805 0.445902 
     length 2.25074 
     axis 0 0 0  XYZ
  end
  begin
     id 2 
     name lfemur
     direction 0.34202 -0.939693 0  
     length 6.54609  
     axis 0 0 20  XYZ
    dof rx ry rz
    limits (-160.0 20.0)
           (-70.0 70.0)
           (-60.0 70.0)
  end
  begin
     id 3 
     name ltibia
     direction 0.34202 -0.939693 0   
     length 7.7528   
     axis 0 0 20   XYZ
    dof rx
    limits (-10.0 170.0)
  end
  begin
     id 4 
     name lfoot
     direction 0.143696 -0.394801 0.90746   
     length 1.73269   
     axis -90 7.62852e-016 20   XYZ
    dof rx rz
    limits (-45.0 90.0)
           (-70.0 20.0)
  end
  begin
     id 5 
     name ltoes
     direction 1.53633e-011 -4.21912e-011 1   
     length 0.858383   
     axis -90 7.62852e-016 20   XYZ
    dof rx
    limits (-90.0 20.0)
  end
  begin
     id 6 
     name rhipjoint
     direction -0.515943 -0.73016 0.447961   
     length 2.2404  
     axis 0 0 0  XYZ 
  end
  begin
     id 7 
     name rfemur
     direction -0.34202 -0.939693 0   
     length 6.84377   
     axis 0 0 -20   XYZ
    dof rx ry rz
    limits (-160.0 20.0)
           (-70.0 70.0)
           (-70.0 60.0)
  end
  begin
     id 8 
     name rtibia
     direction -0.34202 -0.939693 0   
     length 7.57596   
     axis 0 0 -20   XYZ
    dof rx
    limits (-10.0 170.0)
 end
 begin
     id 9 
     name rfoot
     direction -0.0999372 -0.274575 0.956358   
     length 1.78783  
     axis -90 -7.62852e-016 -20   XYZ
    dof rx rz
    limits (-45.0 90.0)
           (-20.0 70.0)
  end
  begin
     id 10 
     name rtoes
     direction -1.53535e-011 -4.21895e-011 1   
     length 0.898614   
     axis -90 -7.62852e-016 -20   XYZ
    dof rx
    limits (-90.0 20.0)
  end
  begin
     id 11 
     name lowerback
     direction -0.011775 0.996164 -0.0867116   
     length 1.91499   
     axis 0 0 0   XYZ
    dof rx ry rz
    limits (-20.0 45.0)
           (-30.0 30.0)
           (-30.0 30.0)
  end
  begin
     id 12 
     name upperback
     direction -0.00189771 0.999673 -0.0254833   
     length 1.92213   
     axis 0 0 0   XYZ
    dof rx ry rz
    limits (-20.0 45.0)
           (-30.0 30.0)
           (-30.0 30.0)
  end
  begin
     id 13 
     name thorax
     direction 0.00335995 0.999878 0.0152401   
     length 1.93138   
     axis 0 0 0   XYZ
    dof rx ry rz
    limits (-20.0 45.0)
           (-30.0 30.0)
           (-30.0 30.0)
  end
  begin
     id 14 
     name lowerneck
     direction 0.00233191 0.998509 0.0545404   
     length 1.59408   
     axis 0 0 0   XYZ
    dof rx ry rz
    limits (-20.0 45.0)
           (-30.0 30.0)
           (-30.0 30.0)
  end
  begin
     id 15 
     name upperneck
     direction 0.07881 0.9956 -0.0506934   
     length 1.59344   
     axis 0 0 0   XYZ
    dof rx ry rz
    limits (-20.0 45.0)
           (-30.0 30.0)
           (-30.0 30.0)
  end
  begin
     id 16
     name head
     direction 0.0261681 0.999378 -0.0236299  
     length 1.60935  
     axis 0 0 0   XYZ
    dof rx ry rz
    limits (-20.0 45.0)
           (-30.0 30.0)
           (-30.0 30.0)
  end
  begin
     id 17 
     name lclavicle
     direction 0.96643 0.252035 0.0499195  
     length 3.82153  
     axis 0 0 0   XYZ
    dof ry rz
    limits (-20.0 10.0)
           (0.0 20.0)
  end
  begin
     id 18 
     name lhumerus
     direction 1 -4.48967e-011 -2.01614e-018   
     length 4.87796   
     axis 180 -30 -90   XYZ
    dof rx ry rz
    limits (-60.0 90.0)
           (-90.0 90.0)
           (-90.0 90.0)
  end
  begin
     id 19
     name lradius
     direction 1 -4.48958e-011 3.1409e-027   
     length 3.23169   
     axis 180 -30 -90   XYZ
    dof rx
    limits (-10.0 170.0)
  end
  begin
     id 20
     name lwrist
     direction 1 -4.48924e-011 1.0365e-027   
     length 1.61584   
     axis -2.56395e-016 90 90   XYZ
    dof ry
    limits (-180.0 0.0)
 end
  begin
     id 21 
     name lhand
     direction 1 -4.49055e-011 2.09488e-027   
     length 0.731324   
     axis -1.32723e-015 90 90   XYZ
    dof rx rz
    limits (-90.0 90.0)
           (-45.0 45.0)
  end
  begin
     id 22 
     name lfingers
     direction 1 -4.48935e-011 4.14981e-027   
     length 0.589612   
     axis -2.6545e-015 90 90   XYZ
    dof rx
    limits (0.0 90.0)
  end
  begin
     id 23
     name lthumb
     direction 0.707107 -6.35097e-011 0.707107   
     length 0.846569   
     axis -90 45 5.05613e-014   XYZ
    dof rx rz
    limits (-45.0 45.0)
           (-45.0 45.0)
  end
  begin
     id 24 
     name rclavicle
     direction -0.979337 0.201016 0.0221522   
     length 3.73827  
     axis 0 0 0   XYZ 
    dof ry rz
    limits (-10.0 20.0)
           (-20.0 0.0)
  end
  begin
     id 25 
     name rhumerus
     direction -1 -4.48971e-011 1.65907e-027  
     length 4.9143   
     axis 180 30 90   XYZ
    dof rx ry rz
    limits (-90.0 60.0)
           (-90.0 90.0)
           (-90.0 90.0)
  end
  begin
     id 26 
     name rradius
     direction -1 -4.4894e-011 2.17871e-028   
     length 3.29093   
     axis 180 30 90   XYZ
    dof rx
    limits (-10.0 170.0)
  end
  begin
     id 27 
     name rwrist
     direction -1 -4.48971e-011 1.04038e-027   
     length 1.64546   
     axis -2.56395e-016 -90 -90   XYZ
    dof ry
    limits (-180.0 0.0)
  end
  begin
     id 28
     name rhand
     direction -1 -4.49017e-011 2.08843e-027   
     length 0.54512   
     axis -1.32723e-015 -90 -90   XYZ
    dof rx rz
    limits (-90.0 90.0)
           (-45.0 45.0)
  end
  begin
     id 29
     name rfingers
     direction -1 -4.48918e-011 4.1439e-027   
     length 0.43949   
     axis -2.6545e-015 -90 -90   XYZ
    dof rx
    limits (0.0 90.0)
  end
  begin
     id 30
     name rthumb
     direction -0.707107 -6.35065e-011 0.707107   
     length 0.631022   
     axis -90 -45 -5.05613e-014   XYZ
    dof rx rz
    limits (-45.0 45.0)
           (-45.0 45.0)
  end
:hierarchy
  begin
    root lhipjoint rhipjoint lowerback
    lhipjoint lfemur
    lfemur ltibia
    ltibia lfoot
    lfoot ltoes
    rhipjoint rfemur
    rfemur rtibia
    rtibia rfoot
    rfoot rtoes
    lowerback upperback
    upperback thorax
    thorax lowerneck lclavicle rclavicle
    lowerneck upperneck
    upperneck head
    lclavicle lhumerus
    lhumerus lradius
    lradius lwrist
    lwrist lhand lthumb
    lhand lfingers
    rclavicle rhumerus
    rhumerus rradius
    rradius rwrist
    rwrist rhand rthumb
    rhand rfingers
  end

#!OML:ASF H:\BreakDance\Project 1\Capture day 1\Session 1\Male.ASF
:FULLY-SPECIFIED
:DEGREES
1521
root -4.29293 14.203 -4.53776 -157.818 -60.9492 922.303
lowerback 17.2793 2.02993 -6.92782
upperback 6.72922 0.370656 -7.15219
thorax -2.48565 -0.156351 -3.74903
lowerneck -8.00617 4.60274 4.59772
upperneck -6.05848 5.52942 -6.73683
head -0.203522 2.62163 -2.80297
rclavicle 1.11319e-013 2.05146e-013
rhumerus 41.7705 21.2497 -67.6066
rradius 92.0207
rwrist -22.32
rhand -19.4808 -18.2234
rfingers 7.12502
rthumb 6.84107 -48.0929
lclavicle 1.11319e-013 2.05146e-013
lhumerus 38.6613 -4.15794 54.2011
lradius 32.2522
lwrist 8.69668
lhand -27.4136 -25.5554
lfingers 7.12502
lthumb -0.81959 4.42279
rfemur -85.8883 -9.25781 38.8879
rtibia 95.2444
rfoot -20.5326 19.9902
rtoes 5.35943
lfemur -100.605 15.0094 -11.9378
ltibia 87.3944
lfoot -11.6799 -16.8714
ltoes -27.1913
1522
root -4.29272 13.9926 -4.49378 -156.545 -59.952 920.179
lowerback 17.4582 1.96548 -7.06034
upperback 6.70462 0.200783 -7.36547
thorax -2.60894 -0.249024 -3.87668
lowerneck -8.08186 4.8706 4.87204
upperneck -5.7281 5.87707 -7.32955
head -0.0331745 2.78978 -3.03448
rclavicle -6.99722e-014 -4.85035e-014
rhumerus 40.3823 22.2481 -67.4911
rradius 93.0662
rwrist -22.4676
rhand -19.3882 -17.9335
rfingers 7.12502
rthumb 6.93045 -47.8001
lclavicle -6.99722e-014 -4.85035e-014
lhumerus 37.3735 -4.40281 53.6628
lradius 33.1345
lwrist 9.28397
lhand -26.5066 -24.9827
lfingers 7.12502
lthumb 0.0564892 4.99701
rfemur -88.0126 -10.1135 37.5879
rtibia 98.2039
rfoot -21.8367 17.9635
rtoes 5.23879
lfemur -100.796 15.1094 -12.8168
ltibia 90.1992
lfoot -11.8958 -18.8421
ltoes -22.6185
1523
root -4.29627 13.7728 -4.45227 -155.484 -59.0333 918.345
lowerback 17.5737 1.90424 -7.06887
upperback 6.68165 0.0747899 -7.50925
thorax -2.69695 -0.316783 -4.00546
lowerneck -8.14478 5.10766 5.16533
upperneck -5.41716 6.1828 -7.94444
head 0.132293 2.93507 -3.28066
rclavicle 3.81667e-014 5.56597e-014
rhumerus 38.9488 23.1244 -67.261
rradius 94.1294
rwrist -22.6222
rhand -19.2253 -17.6772
rfingers 7.12502
rthumb 7.08766 -47.5385
lclavicle 3.81667e-014 5.56597e-014
lhumerus 36.1014 -4.79803 53.1821
lradius 34.0616
lwrist 9.90121
lhand -25.7952 -24.6831
lfingers 7.12502
lthumb 0.743554 5.29535
rfemur -90.1723 -11.0341 36.4802
rtibia 100.855
rfoot -22.8653 16.0303
rtoes 6.2556
lfemur -100.937 15.1892 -13.631
ltibia 92.6048
lfoot -12.9115 -20.497
ltoes -17.7802
1524
root -4.30284 13.5441 -4.41336 -154.731 -58.2191 916.869
lowerback 17.6883 1.84441 -6.88844
upperback 6.68002 -0.00586775 -7.58903
thorax -2.76135 -0.358825 -4.17965
lowerneck -8.2392 5.31492 5.51064
upperneck -5.10694 6.44409 -8.59681
head 0.308007 3.05445 -3.55273
rclavicle 5.08889e-014 9.06458e-014
rhumerus 37.4612 23.8423 -66.9899
rradius 95.2211
rwrist -22.724
rhand -18.9477 -17.4482
rfingers 7.12502
rthumb 7.35562 -47.3004
lclavicle 5.08889e-014 9.06458e-014
lhumerus 34.8951 -5.33512 52.7414
lradius 35.0107
lwrist 10.5031
lhand -25.3269 -24.5728
lfingers 7.12502
lthumb 1.19584 5.40355
rfemur -92.2643 -11.9835 35.6135
rtibia 103.136
rfoot -23.6909 14.3903
rtoes 7.84798
lfemur -101.075 15.2783 -14.3975
ltibia 94.7386
lfoot -14.7803 -21.6342
ltoes -14.5408
1525
root -4.31135 13.3097 -4.3773 -154.297 -57.5167 915.737
lowerback 17.8399 1.78281 -6.51778
upperback 6.71823 -0.0508397 -7.61582
thorax -2.80214 -0.381017 -4.41119
lowerneck -8.40985 5.50006 5.8708
upperneck -4.80902 6.6716 -9.21545
head 0.494174 3.15308 -3.81844
rclavicle -5.08889e-014 -1.57437e-013
rhumerus 35.9323 24.3882 -66.7378
rradius 96.3453
rwrist -22.7065
rhand -18.5731 -17.2069
rfingers 7.12502
rthumb 7.71717 -47.0461
lclavicle -5.08889e-014 -1.57437e-013
lhumerus 33.7937 -5.96243 52.3323
lradius 35.9702
lwrist 11.0742
lhand -25.0708 -24.5871
lfingers 7.12502
lthumb 1.44319 5.38781
rfemur -94.1992 -12.9154 34.9797
rtibia 105.001
rfoot -24.4501 13.1969
rtoes 9.48711
lfemur -101.314 15.4135 -15.1578
ltibia 96.7786
lfoot -17.2633 -22.0731
ltoes -13.8017
1526
root -4.32064 13.0708 -4.34416 -154.125 -56.8985 914.877
lowerback 18.0541 1.72589 -6.02644
upperback 6.79486 -0.0678721 -7.59257
thorax -2.8336 -0.388314 -4.66378
lowerneck -8.66175 5.66909 6.20707
upperneck -4.53262 6.87489 -9.77186
head 0.68602 3.23647 -4.05975
rclavicle 2.8625e-014 1.04958e-013
rhumerus 34.3766 24.7786 -66.5165
rradius 97.4943
rwrist -22.5294
rhand -18.1213 -16.9056
rfingers 7.12502
rthumb 8.15322 -46.7283
lclavicle 2.8625e-014 1.04958e-013
lhumerus 32.7994 -6.62742 51.9719
lradius 36.9159
lwrist 11.5902
lhand -24.9745 -24.6826
lfingers 7.12502
lthumb 1.53616 5.29163
rfemur -95.9261 -13.7773 34.5188
rtibia 106.465
rfoot -25.3122 12.532
rtoes 10.7612
lfemur -101.766 15.635 -15.9914
ltibia 98.9028
lfoot -20.001 -21.703
ltoes -15.5094
1527
root -4.32942 12.8287 -4.31367 -154.135 -56.3279 914.201
lowerback 18.3378 1.67895 -5.50715
upperback 6.8962 -0.0678301 -7.52139
thorax -2.87365 -0.38709 -4.88571
lowerneck -8.93097 5.83332 6.54105
upperneck -4.32636 7.06595 -10.3066
head 0.859589 3.31216 -4.29631
rclavicle 3.81667e-014 9.06458e-014
rhumerus 32.8142 25.0408 -66.3164
rradius 98.6568
rwrist -22.1746
rhand -17.5734 -16.5276
rfingers 7.12502
rthumb 8.68204 -46.3291
lclavicle 3.81667e-014 9.06458e-014
lhumerus 31.8819 -7.27061 51.69
lradius 37.8275
lwrist 11.9984
lhand -24.9742 -24.8448
lfingers 7.12502
lthumb 1.53651 5.12944
rfemur -97.4315 -14.527 34.1644
rtibia 107.603
rfoot -26.4055 12.3866
rtoes 11.598
lfemur -102.522 15.9699 -16.9517
ltibia 101.229
lfoot -22.4387 -20.7414
ltoes -18.0339
1528
root -4.33651 12.5849 -4.28536 -154.241 -55.7711 913.634
lowerback 18.674 1.64563 -5.03764
upperback 7.01354 -0.0585102 -7.40615
thorax -2.9226 -0.382367 -5.0351
lowerneck -9.25119 6.00262 6.82145
upperneck -4.1577 7.24574 -11.1512
head 0.95197 3.37197 -4.17363
rclavicle -1.27222e-014 3.02153e-014
rhumerus 31.2757 25.2009 -66.1138
rradius 99.8163
rwrist -21.6408
rhand -16.9188 -16.0848
rfingers 7.12502
rthumb 9.3137 -45.859
lclavicle -1.27222e-014 3.02153e-014
lhumerus 31.0152 -7.84446 51.5008
lradius 38.6968
lwrist 12.2724
lhand -25.0167 -25.0905
lfingers 7.12502
lthumb 1.49543 4.88404
rfemur -98.7552 -15.1569 33.8585
rtibia 108.586
rfoot -27.7459 12.671
rtoes 12.0351
lfemur -103.622 16.4276 -18.0497
ltibia 103.769
lfoot -24.2299 -19.5587
ltoes -19.9563
1529
root -4.34147 12.3408 -4.25886 -154.363 -55.1966 913.103
lowerback 19.0496 1.63261 -4.68002
upperback 7.13781 -0.0425345 -7.25296
thorax -2.98345 -0.376461 -5.08207
lowerneck -9.41805 6.1782 7.1526
upperneck -4.1933 7.43566 -11.7231
head 1.02576 3.44756 -4.3854
rclavicle -7.79236e-014 -6.52014e-014
rhumerus 29.7762 25.2835 -65.8918
rradius 100.961
rwrist -20.9696
rhand -16.199 -15.5979
rfingers 7.12502
rthumb 10.0082 -45.34
lclavicle -7.79236e-014 -6.52014e-014
lhumerus 30.185 -8.33926 51.4044
lradius 39.5243
lwrist 12.4217
lhand -25.0934 -25.4211
lfingers 7.12502
lthumb 1.4214 4.55391
rfemur -99.9517 -15.6827 33.5454
rtibia 109.633
rfoot -29.2331 13.2519
rtoes 12.2636
lfemur -105.025 17.0026 -19.2704
ltibia 106.491
lfoot -25.2754 -18.5939
ltoes -19.9973
1530
root -4.34223 12.129 -4.23176 -154.451 -54.5776 912.568
lowerback 19.442 1.64889 -4.46591
upperback 7.26487 -0.014537 -7.0753
thorax -3.04873 -0.367498 -5.02368
lowerneck -9.53455 6.35637 7.45733
upperneck -4.33674 7.62338 -12.283
head 1.06029 3.52461 -4.59253
rclavicle -2.8625e-014 7.15625e-015
rhumerus 28.32 25.2932 -65.6605
rradius 102.074
rwrist -20.2043
rhand -15.491 -15.0782
rfingers 7.12502
rthumb 10.6912 -44.7862
lclavicle -2.8625e-014 7.15625e-015
lhumerus 29.3948 -8.75953 51.3999
lradius 40.3152
lwrist 12.4355
lhand -25.235 -25.85
lfingers 7.12502
lthumb 1.28461 4.12587
rfemur -100.873 -16.0835 33.1898
rtibia 110.697
rfoot -30.6818 13.8976
rtoes 12.3779
lfemur -106.391 17.6525 -20.5657
ltibia 109.052
lfoot -25.7432 -17.9417
ltoes -18.453
1531
root -4.34332 11.8934 -4.20807 -154.507 -53.9009 912.035
lowerback 19.8451 1.70283 -4.3763
upperback 7.3878 0.0373732 -6.88873
thorax -3.12213 -0.349422 -4.89035
lowerneck -9.60685 6.51627 7.66199
upperneck -4.56374 7.78914 -12.7115
head 1.05223 3.59598 -4.74765
rclavicle 5.725e-014 6.91771e-014
rhumerus 26.8678 25.2193 -65.4616
rradius 103.138
rwrist -19.3699
rhand -14.8737 -14.5197
rfingers 7.12502
rthumb 11.2866 -44.196
lclavicle 5.725e-014 6.91771e-014
lhumerus 28.6558 -9.12698 51.493
lradius 41.0763
lwrist 12.3032
lhand -25.4794 -26.3825
lfingers 7.12502
lthumb 1.04855 3.59462
rfemur -101.98 -16.4553 32.8107
rtibia 112.265
rfoot -31.9289 14.4896
rtoes 12.3259
lfemur -108.093 18.4485 -21.9036
ltibia 111.787
lfoot -25.8425 -17.6122
ltoes -16.5178
1532
root -4.34396 11.6608 -4.18602 -154.558 -53.1729 911.526
lowerback 20.2639 1.7934 -4.35987
upperback 7.50735 0.118021 -6.71132
thorax -3.20519 -0.319383 -4.73269
lowerneck -9.67521 6.65205 7.80858
upperneck -4.79772 7.92618 -13.0268
head 1.03138 3.65548 -4.86106
rclavicle 6.52014e-014 -1.98785e-014
rhumerus 25.3723 25.0386 -65.3506
rradius 104.146
rwrist -18.4888
rhand -14.3798 -13.9112
rfingers 7.12502
rthumb 11.7629 -43.5609
lclavicle 6.52014e-014 -1.98785e-014
lhumerus 27.9842 -9.45692 51.6789
lradius 41.8295
lwrist 12.0622
lhand -25.7938 -26.9399
lfingers 7.12502
lthumb 0.744945 3.03851
rfemur -103.11 -16.7814 32.4432
rtibia 114.123
rfoot -32.8955 14.8756
rtoes 11.9771
lfemur -109.826 19.3536 -23.238
ltibia 114.432
lfoot -25.8511 -17.4029
ltoes -15.8309
